<svg width="45" height="35" viewBox="0 0 45 35" fill="none" xmlns="http://www.w3.org/2000/svg">
<path d="M14.6846 4.21077C14.6846 4.82262 14.6846 6.35224 14.6846 6.65817C14.6846 7.27002 14.9905 7.57594 15.9083 7.27002C17.4379 6.65817 22.0268 5.43447 24.1682 5.12854L15.6023 30.8262C15.2964 31.4381 15.6023 31.744 16.2142 31.744C16.5201 31.744 19.2734 31.744 19.5794 31.744C20.1912 31.744 20.4971 31.4381 20.4971 30.8262L29.369 4.51669C32.4282 4.21077 36.7112 4.51669 38.8526 4.82262C39.7704 4.82262 40.0763 4.82262 40.0763 4.51669C40.3823 4.21077 40.9941 2.68114 40.9941 1.76337C40.9941 1.15152 40.9941 0.845591 40.0763 0.539666C30.8986 -0.684034 22.3327 0.233741 15.2964 2.68114C14.9905 3.29299 14.6846 3.59892 14.6846 4.21077Z" fill="#007CB6"/>
<path d="M30.5926 28.0729C31.2045 25.9314 32.4282 24.0959 33.6519 22.8722C34.8756 21.6485 36.7111 19.8129 38.5467 19.8129C39.4645 19.8129 39.4645 20.4248 39.4645 21.0366C39.4645 23.484 37.0171 30.8262 32.4282 30.8262C31.2045 30.8262 29.9808 29.9085 30.5926 28.0729ZM44.9711 20.1189C44.9711 17.6715 44.0533 15.53 40.9941 15.53C38.2408 15.53 35.1815 17.6715 33.6519 19.2011L37.0171 8.79964C37.323 8.18779 37.0171 7.88187 36.0993 7.57594C35.7934 7.57594 33.6519 7.27002 33.346 7.27002C32.7341 7.27002 32.4282 7.57594 32.1223 8.18779L25.6978 27.767C25.6978 28.3788 25.3919 29.2966 25.3919 29.6025C25.3919 32.0499 27.2275 34.4974 31.5104 34.4974C40.3822 34.4974 44.9711 25.6255 44.9711 20.1189Z" fill="#007CB6"/>
<path d="M10.4015 12.7767C11.6252 12.7767 12.237 14.0004 12.237 14.6122C12.237 16.1418 11.6252 16.7537 10.4015 17.3656C9.17775 17.9774 7.03628 18.2833 5.81258 18.2833C6.42443 16.1419 8.5659 12.7767 10.4015 12.7767ZM12.8489 20.1189C14.9903 19.2011 16.8259 17.3656 16.8259 14.3063C16.8259 11.8589 15.2963 9.4115 11.6252 9.4115C4.28295 9.4115 0 17.0596 0 22.5663C0 26.8492 1.83555 29.6026 6.73035 29.6026C9.48368 29.6026 11.6252 28.9907 13.1548 27.767C13.4607 27.4611 13.4607 27.4611 13.4607 27.1552C13.7666 26.8492 14.3785 24.7078 14.3785 24.4018C14.3785 24.4018 14.3785 24.0959 14.0726 23.79C13.7666 23.79 13.7666 23.79 13.4607 23.79C11.9311 25.0137 10.0955 25.6255 8.25998 25.6255C5.20073 25.6255 4.28295 23.4841 4.8948 21.3426C6.73035 21.9544 10.4015 21.6485 12.8489 20.1189Z" fill="#007CB6"/>
</svg>
